<svg t="1594875377385" class="icon" viewBox="0 0 1024 1024" version="1.1" xmlns="http://www.w3.org/2000/svg" p-id="1721" width="16" height="16"><path class="jp-icon3 jp-icon-selectable" d="M991.9552025 433.19941062V94.22856312a53.33084437 53.33084437 0 0 0-52.79753625-52.53088218h-355.183425a53.33084437 53.33084437 0 0 0-52.79753625 52.53088219v339.07750968a53.33084437 53.33084437 0 0 0 52.79753625 52.53088125h355.183425a53.33084437 53.33084437 0 0 0 52.79753625-52.63754343zM84.79753625 538.26117406a53.33084437 53.33084437 0 0 0-52.79753625 52.53088219v339.07750969a53.33084437 53.33084437 0 0 0 52.79753625 52.53088219h355.183425a53.33084437 53.33084437 0 0 0 52.79753531-52.53088219v-339.07750969a53.33084437 53.33084437 0 0 0-52.79753531-52.53088219z m196.79081625-229.32263156h-52.79753625a169.64541656 169.64541656 0 0 1 167.99216062-167.13886687h19.19910376a22.61227781 22.61227781 0 0 0 23.99888062-23.89221844V55.88368531a22.61227781 22.61227781 0 0 0-23.99888062-23.89221843h-19.19910375a277.90703063 277.90703063 0 0 0-278.38700907 277.00040718H55.99887969c-9.59955187 0-14.39932781 9.54622125-14.39932781 19.09244157 0 4.79977594 0 4.79977594 4.79977593 9.54622125l105.5950725 119.40776156a23.30557875 23.30557875 0 0 0 33.59843157 0L291.18790437 337.63053688a14.45265844 14.45265844 0 0 0 0-19.09244157c-4.79977594-4.79977594-4.79977594-9.54622125-9.59955187-9.54622125z m460.7784975 401.15461313h52.79753531a169.64541656 169.64541656 0 0 1-167.99215968 167.13886687h-19.19910469a22.61227781 22.61227781 0 0 0-23.99887969 23.89221844v66.87687937a22.61227781 22.61227781 0 0 0 23.99887969 23.89221844h19.19910468a277.90703063 277.90703063 0 0 0 278.38700813-277.00040719h62.39708812a12.69274125 12.69274125 0 0 0 14.39932782-14.34599718c0-4.79977594 0-4.79977594-4.79977594-9.54622125l-105.59507156-119.40776063a23.30557875 23.30557875 0 0 0-33.5984325 0l-105.5950725 119.40776063a14.45265844 14.45265844 0 0 0 0 19.0924425c0-4.79977594 4.79977594 0 9.59955281 0z" fill="#616161" p-id="1722"></path></svg>