<svg t="1594872168604" class="icon" viewBox="0 0 1448 1024" version="1.1" xmlns="http://www.w3.org/2000/svg" p-id="2111" width="16" height="16"><path class="jp-icon-selectable" d="M857.02911741 319.72481959v146.55139824H705.48874128l-179.80618777-99.04771223h0.23750463V223.76466745c139.90264966-14.964172 246.78801442-95.01013367 246.7880144-191.20640962 0-107.12425021-131.82611169-193.82034128-294.29170041-193.82034128S184.36079551-74.56599239 184.36079551 32.55825783c0 96.43378057 106.88536475 176.47974224 246.78801441 191.20502876v143.46521901h0.23750463L172.7216882 509.74370609l258.42712172 163.89199728v126.59962918c-139.90264966 14.964172-246.78801442 95.01013367-246.78801441 191.20640962 0 107.12425021 131.82611169 193.82034128 294.29308125 193.82034128 133.25113941 0 246.07411971-58.43027943 282.17758386-138.4762411h345.5968412V707.36412131h188.35773499V319.72481959H857.02911741zM280.08344304 32.55825783c0-72.20830915 88.83363267-130.63858859 198.33292909-130.63858858s198.33154826 58.43027943 198.33154826 130.63858858-88.83363267 130.63720774-198.33154826 130.63720775-198.3329291-58.43027943-198.33292909-130.63720775z m198.33292909 381.2252961l176.004733 96.91017065-176.004733 111.39933341-176.00611382-111.39933341 176.00611382-96.91017065z m0 709.72180456c-110.68681953 0-200.47047069-59.14279329-200.47047069-132.06361632 0-72.91944219 89.78365116-132.06361632 200.47047069-132.06361632 110.68543869 0 200.47047069 59.14417413 200.4704707 132.06361632 0 72.92082302-89.54752737 132.06361632-200.4704707 132.06361632z m527.54057057-174.81720988H765.58155305c-26.12827005-76.48339234-120.9008991-135.86369026-239.66287575-148.68893983v-126.60101002l177.43114155-112.34935188h153.67791772v146.55277906H1005.95832354v241.08652267z m201.89549841-318.28242888H943.96271311V396.68184035h263.889728V630.40710059z" fill="#1296db" p-id="2112"></path></svg>