<svg t="1594872078978" class="icon" viewBox="0 0 1024 1024" version="1.1" xmlns="http://www.w3.org/2000/svg" p-id="1864" width="16" height="16"><path class="jp-icon-selectable" d="M88.746667 1004.08888855a46.08000001 46.08000001 0 0 1-46.08-46.08V68.83555554A46.08000001 46.08000001 0 0 1 88.746667 22.75555555h600.746666c12.20266701 0 23.893333 4.864 32.597334 13.482667l227.07200001 227.15733299a45.909333 45.909333 0 0 1 13.48266601 32.42666701v662.186666c0 25.429333-20.565333 46.08000001-45.99466599 46.08H88.746667z m798.72-78.933333V302.05155555L678.570667 93.15555555H119.466667v832h768z" fill="#d4237a" p-id="1865"></path><path class="jp-icon-selectable" d="M213.333333 745.52888855V364.08888855h115.456c84.906667 0 145.493333 29.013333 145.49333402 115.02933399 0 83.456-60.58666702 121.85600001-143.36000002 121.85600001h-57.51466699V745.52888855H213.333333z m60.07466701-192.768h51.79733299c61.098667 0 90.026667-23.296 90.02666699-73.64266601 0-50.261333-31.573333-66.816-92.15999999-66.81599999h-49.66400001V552.67555555zM512 745.52888855V364.08888855h118.016c78.25066701 0 134.656 24.917333 134.656 93.86666699 0 36.266667-20.13866699 70.997333-54.357333 82.346667v2.55999999c43.52 9.386667 75.093333 38.912 75.09333299 90.79466602 0 75.60533299-61.610667 111.957333-146.00533298 111.957334H512z m60.074667-222.293333h51.2c58.026667 0 82.346667-21.76 82.346666-57.514667 0-39.93600001-26.88-54.954667-80.725333-54.954666h-52.90666699v112.469333z m0 175.189333h60.58666599c59.562667 0 93.696-21.333333 93.69600001-67.92533301 0-43.008-33.109333-61.696-93.69600001-61.69599999h-60.58666599v129.621333z" fill="#d4237a" p-id="1866"></path></svg>